<svg width="32" height="34" viewBox="0 0 32 34" fill="none" xmlns="http://www.w3.org/2000/svg">
<rect width="32" height="33.247" fill="white"/>
<path d="M28.3334 16.6236C28.3334 23.7584 22.7758 29.4765 16 29.4765C9.2242 29.4765 3.66669 23.7584 3.66669 16.6236C3.66669 9.4887 9.2242 3.77063 16 3.77063C22.7758 3.77063 28.3334 9.4887 28.3334 16.6236Z" stroke="#1F9D00" stroke-width="2"/>
<path d="M24.6667 16.6235H26" stroke="#1F9D00" stroke-width="2" stroke-linecap="round"/>
<path d="M6 16.6235H7.33333M16 6.23376V7.61906M16 25.6279V27.0132" stroke="#1F9D00" stroke-width="2" stroke-linecap="round"/>
<path d="M9.381 9.81264L12.7235 17.9157C13.115 18.8648 13.8564 19.627 14.7942 20.0446L22.5524 23.4991C22.5936 23.5174 22.6362 23.4761 22.619 23.4343L19.2764 15.3312C18.885 14.3822 18.1436 13.62 17.2058 13.2024L9.44756 9.74789C9.40632 9.72953 9.36379 9.7709 9.381 9.81264Z" stroke="#1F9D00" stroke-width="2" stroke-linecap="round"/>
<path d="M19 16.6235C19 18.4028 17.6212 19.7794 16 19.7794C14.3788 19.7794 13 18.4028 13 16.6235C13 14.8442 14.3788 13.4677 16 13.4677C17.6212 13.4677 19 14.8442 19 16.6235Z" stroke="#1F9D00" stroke-width="2" stroke-linecap="round"/>
</svg>
