<svg width="327" height="29" viewBox="0 0 327 29" fill="none" xmlns="http://www.w3.org/2000/svg">
<rect x="0.5" y="0.5" width="326" height="28" rx="12.5" stroke="#868686"/>
<rect x="27" y="8" width="2" height="13" fill="#1F9D00"/>
<rect x="107" y="8" width="2" height="13" fill="#1F9D00"/>
<rect x="207" y="8" width="2" height="13" fill="#1F9D00"/>
<rect x="67" y="8" width="2" height="13" fill="#1F9D00"/>
<rect x="147" y="8" width="2" height="13" fill="#1F9D00"/>
<rect x="247" y="8" width="2" height="13" fill="#1F9D00"/>
<rect x="47" y="8" width="2" height="13" fill="#1F9D00"/>
<rect x="127" y="8" width="2" height="13" fill="#1F9D00"/>
<rect x="227" y="8" width="2" height="13" fill="#1F9D00"/>
<rect x="87" y="8" width="2" height="13" fill="#1F9D00"/>
<rect x="187" y="8" width="2" height="13" fill="#1F9D00"/>
<rect x="167" y="8" width="2" height="13" fill="#1F9D00"/>
<rect x="267" y="8" width="2" height="13" fill="#1F9D00"/>
<rect x="291" y="8" width="2" height="13" fill="#1F9D00"/>
<rect x="31" y="11" width="2" height="8" fill="#1F9D00"/>
<rect x="111" y="11" width="2" height="8" fill="#1F9D00"/>
<rect x="211" y="11" width="2" height="8" fill="#1F9D00"/>
<rect x="71" y="11" width="2" height="8" fill="#1F9D00"/>
<rect x="151" y="11" width="2" height="8" fill="#1F9D00"/>
<rect x="251" y="11" width="2" height="8" fill="#1F9D00"/>
<rect x="51" y="11" width="2" height="8" fill="#1F9D00"/>
<rect x="131" y="11" width="2" height="8" fill="#1F9D00"/>
<rect x="231" y="11" width="2" height="8" fill="#1F9D00"/>
<rect x="91" y="11" width="2" height="8" fill="#1F9D00"/>
<rect x="191" y="11" width="2" height="8" fill="#1F9D00"/>
<rect x="171" y="11" width="2" height="8" fill="#1F9D00"/>
<rect x="271" y="11" width="2" height="8" fill="#1F9D00"/>
<rect x="295" y="11" width="2" height="8" fill="#1F9D00"/>
<rect x="39" y="11" width="2" height="8" fill="#1F9D00"/>
<rect x="119" y="11" width="2" height="8" fill="#1F9D00"/>
<rect x="219" y="11" width="2" height="8" fill="#1F9D00"/>
<rect x="79" y="11" width="2" height="8" fill="#1F9D00"/>
<rect x="159" y="11" width="2" height="8" fill="#1F9D00"/>
<rect x="259" y="11" width="2" height="8" fill="#1F9D00"/>
<rect x="59" y="11" width="2" height="8" fill="#1F9D00"/>
<rect x="139" y="11" width="2" height="8" fill="#1F9D00"/>
<rect x="239" y="11" width="2" height="8" fill="#1F9D00"/>
<rect x="99" y="11" width="2" height="8" fill="#1F9D00"/>
<rect x="199" y="11" width="2" height="8" fill="#1F9D00"/>
<rect x="179" y="11" width="2" height="8" fill="#1F9D00"/>
<rect x="279" y="11" width="2" height="8" fill="#1F9D00"/>
<rect x="303" y="11" width="2" height="8" fill="#1F9D00"/>
<rect x="43" y="8" width="2" height="12" fill="#1F9D00"/>
<rect x="123" y="8" width="2" height="12" fill="#1F9D00"/>
<rect x="223" y="8" width="2" height="12" fill="#1F9D00"/>
<rect x="83" y="8" width="2" height="12" fill="#1F9D00"/>
<rect x="163" y="8" width="2" height="12" fill="#1F9D00"/>
<rect x="263" y="8" width="2" height="12" fill="#1F9D00"/>
<rect x="287" y="8" width="2" height="12" fill="#1F9D00"/>
<rect x="63" y="8" width="2" height="12" fill="#1F9D00"/>
<rect x="143" y="8" width="2" height="12" fill="#1F9D00"/>
<rect x="243" y="8" width="2" height="12" fill="#1F9D00"/>
<rect x="103" y="8" width="2" height="12" fill="#1F9D00"/>
<rect x="203" y="8" width="2" height="12" fill="#1F9D00"/>
<rect x="183" y="8" width="2" height="12" fill="#1F9D00"/>
<rect x="283" y="8" width="2" height="12" fill="#1F9D00"/>
<rect x="307" y="8" width="2" height="12" fill="#1F9D00"/>
<rect x="35" y="6" width="2" height="17" fill="#1F9D00"/>
<rect x="115" y="6" width="2" height="17" fill="#1F9D00"/>
<rect x="215" y="6" width="2" height="17" fill="#1F9D00"/>
<rect x="75" y="6" width="2" height="17" fill="#1F9D00"/>
<rect x="155" y="6" width="2" height="17" fill="#1F9D00"/>
<rect x="255" y="6" width="2" height="17" fill="#1F9D00"/>
<rect x="55" y="6" width="2" height="17" fill="#1F9D00"/>
<rect x="135" y="6" width="2" height="17" fill="#1F9D00"/>
<rect x="235" y="6" width="2" height="17" fill="#1F9D00"/>
<rect x="95" y="6" width="2" height="17" fill="#1F9D00"/>
<rect x="195" y="6" width="2" height="17" fill="#1F9D00"/>
<rect x="175" y="6" width="2" height="17" fill="#1F9D00"/>
<rect x="275" y="6" width="2" height="17" fill="#1F9D00"/>
<rect x="299" y="6" width="2" height="17" fill="#1F9D00"/>
</svg>
