<svg width="36" height="36" viewBox="0 0 36 36" fill="none" xmlns="http://www.w3.org/2000/svg">
<path d="M16.7094 19.4246L18.8846 34.9228C18.9539 35.4164 19.3413 35.805 19.836 35.8742C19.8885 35.8821 19.9399 35.8854 19.9912 35.8854C20.429 35.8854 20.831 35.6297 21.0119 35.2221L35.887 1.72211C36.0746 1.2989 35.983 0.805329 35.6558 0.479262C35.3287 0.152079 34.8351 0.0627445 34.413 0.248111L0.912996 15.1232C0.458513 15.3265 0.19163 15.8044 0.260864 16.2991C0.330097 16.7926 0.717579 17.1812 1.21226 17.2505L16.7094 19.4246ZM32.6688 3.46523L20.554 30.7476L18.8042 18.2812C18.735 17.7876 18.3475 17.399 17.8528 17.3298L5.38636 15.5799L32.6688 3.46523Z" fill="#1F9D00" stroke="#1F9D00" stroke-width="0.000533333"/>
</svg>
